<?xml version="1.0" encoding="UTF-8"?>
<svg id="Layer_1" data-name="Layer 1" xmlns="http://www.w3.org/2000/svg" viewBox="0 0 32 32">
  <defs>
    <style>
      .cls-1 {
        fill: none;
        stroke: #000;
        stroke-linecap: round;
        stroke-linejoin: round;
        stroke-width: 1.33px;
      }
    </style>
  </defs>
  <path class="cls-1" d="M13.66,14.7h4.65c2.61,0,4.73,2.12,4.73,4.73v.77c0,3.12-2.54,5.66-5.66,5.66h-2.79c-3.12,0-5.66-2.54-5.66-5.66v-.77c0-2.61,2.12-4.73,4.73-4.73Z"/>
  <circle class="cls-1" cx="11.42" cy="11.39" r="1.22"/>
  <path class="cls-1" d="M11.42,12.61s-.13,1.7.85,2.29"/>
  <g>
    <path class="cls-1" d="M9.87,23.3c-1.91.34-3.59,2.17-3.59,4.22"/>
    <path class="cls-1" d="M8.9,19.95h0c-2.65,0-4.85,1.98-5.7,4.8"/>
    <path class="cls-1" d="M12.6,25.49c-1.27,0-2.29,1.09-2.29,2.35v.17"/>
  </g>
  <g>
    <path class="cls-1" d="M22.06,23.3c1.91.34,3.59,2.17,3.59,4.22"/>
    <path class="cls-1" d="M23.03,19.95h0c2.65,0,4.85,1.98,5.7,4.8"/>
    <path class="cls-1" d="M19.33,25.49c1.27,0,2.29,1.09,2.29,2.35v.17"/>
  </g>
  <g>
    <path class="cls-1" d="M30.73,6.82v1.47c0,1.57-1.27,2.84-2.83,2.84h-.39c-1.45,0-2.62-1.17-2.62-2.62h2.62V3.99h.39c1.56,0,2.83,1.27,2.83,2.83Z"/>
    <path class="cls-1" d="M27.51,11.13c0,2.83-.13,3.53-2.53,4.8l-2.47,1.36"/>
  </g>
  <g>
    <path class="cls-1" d="M1.18,6.82v1.47c0,1.57,1.27,2.84,2.83,2.84h.39c1.45,0,2.62-1.17,2.62-2.62h-2.62V3.99s-.39,0-.39,0c-1.56,0-2.83,1.27-2.83,2.83Z"/>
    <path class="cls-1" d="M4.41,11.13c0,2.83.13,3.53,2.53,4.8l2.47,1.36"/>
  </g>
  <circle class="cls-1" cx="20.56" cy="11.39" r="1.22"/>
  <path class="cls-1" d="M20.56,12.61s.13,1.7-.85,2.29"/>
  <path class="cls-1" d="M19.1,17.56l-.85.9c-.54.57-.83,1.33-.83,2.11v2.72"/>
  <path class="cls-1" d="M12.87,17.56l.85.9c.54.57.83,1.33.83,2.11v2.72"/>
</svg>