<?xml version="1.0" encoding="UTF-8"?>
<svg id="Kilo_Code_Branding" xmlns="http://www.w3.org/2000/svg" version="1.1" viewBox="0 0 50 50">
  <!-- Generator: Adobe Illustrator 29.3.1, SVG Export Plug-In . SVG Version: 2.1.0 Build 151)  -->
  <defs>
    <style>
      .st0 {
        fill: #231f20;
      }
    </style>
  </defs>
  <path id="Logo_v2" class="st0" d="M50,50H0V0h50v50ZM31.5217352,31.5219241h-4.3478261v6.8322981l2.9503106,2.9503106h6.8322981v-4.3478261h-5.4347826v-5.4347826ZM41.3043439,30.1244086l-2.9503106-2.9503106h-6.8322981v4.3478261h5.4347826v5.4347826h4.3478261v-6.8322981ZM22.826087,27.1740947h-4.3478261v4.3478261h4.3478261v-4.3478261ZM8.6956522,38.354219l2.9503106,2.9503106h11.1801242v-4.3478261h-9.7826087v-9.7826087h-4.3478261v11.1801242ZM36.3806739,18.4782563v-6.8322981l-2.9503106-2.9503106h-6.2564542v4.3478261h4.8589387v5.4347826h-4.8589387v4.3478261h14.1304348v-4.3478261h-4.92367ZM13.0434783,8.6956522h-4.3478261v14.1304348h4.3478261v-4.8913043h5.4347826v4.8913043h4.3478261v-4.8913043l-4.3478261-4.3478261h-5.4347826v-4.8913043ZM22.826087,8.6956522h-4.3478261v4.8913043h4.3478261v-4.8913043Z"/>
</svg>