<?xml version="1.0" encoding="UTF-8"?>
<svg id="Kilo_Code_Branding" xmlns="http://www.w3.org/2000/svg" version="1.1" viewBox="0 0 340 210">
  <!-- Generator: Adobe Illustrator 29.3.1, SVG Export Plug-In . SVG Version: 2.1.0 Build 151)  -->
  <defs>
    <style>
      .st0 {
        fill: #231f20;
      }
    </style>
  </defs>
  <path id="Logo_v3" class="st0" d="M255.9999511,119.6666921h6.6666279v5.3333023h-8.3809037l-3.6190266-3.6190266v-8.3809037h5.3333023v6.6666279ZM267.9998813,111.2857884l-3.6190266-3.6190266h-8.3809037v5.3333023h6.6666279v6.6666279h5.3333023v-8.3809037ZM245.3333512,107.6667578h-5.3333023v5.3333023h5.3333023v-5.3333023ZM228.0001187,121.3809638l3.6190266,3.6190266h13.714206v-5.3333023h-11.9999302v-11.9999302h-5.3333023v13.714206ZM261.9602145,96.9999247v-8.3809037l-3.6190266-3.6190266h-7.6745392v5.3333023h5.9602634v6.6666279h-5.9602634v5.3333023h17.3332326v-5.3333023h-6.0396668ZM233.333421,85h-5.3333023v17.3332326h5.3333023v-5.9999651h6.6666279v5.9999651h5.3333023v-5.9999651l-5.3333023-5.3333023h-6.6666279v-5.9999651ZM245.3333512,85h-5.3333023v5.9999651h5.3333023v-5.9999651Z"/>
  <path id="Logo_v2" class="st0" d="M202.0001187,130h-50v-50h50v50ZM183.5218539,111.5219241h-4.3478261v6.8322981l2.9503106,2.9503106h6.8322981v-4.3478261h-5.4347826v-5.4347826ZM193.3044626,110.1244086l-2.9503106-2.9503106h-6.8322981v4.3478261h5.4347826v5.4347826h4.3478261v-6.8322981ZM174.8262056,107.1740947h-4.3478261v4.3478261h4.3478261v-4.3478261ZM160.6957708,118.354219l2.9503106,2.9503106h11.1801242v-4.3478261h-9.7826087v-9.7826087h-4.3478261v11.1801242ZM188.3807925,98.4782563v-6.8322981l-2.9503106-2.9503106h-6.2564542v4.3478261h4.8589387v5.4347826h-4.8589387v4.3478261h14.1304348v-4.3478261h-4.92367ZM165.0435969,88.6956522h-4.3478261v14.1304348h4.3478261v-4.8913043h5.4347826v4.8913043h4.3478261v-4.8913043l-4.3478261-4.3478261h-5.4347826v-4.8913043ZM174.8262056,88.6956522h-4.3478261v4.8913043h4.3478261v-4.8913043Z"/>
  <path id="Logo_v1" class="st0" d="M72.0001187,80v50h50v-50h-50ZM118.296415,126.2962963h-42.5925926v-42.5925926h42.5925926v42.5925926ZM102.5556709,115.9548042h4.6296296v3.7037037h-5.8201058l-2.5132275-2.5132275v-5.8201058h3.7037037v4.6296296ZM110.8890042,115.9548042h-3.7037037v-4.6296296h-4.6296296v-3.7037037h5.8201058l2.5132275,2.5132275v5.8201058ZM95.1482668,110.5557103h-3.7037037v-3.7037037h3.7037037v3.7037037ZM83.1112298,106.8520066h3.7037037v8.3333333h8.3333333v3.7037037h-9.5238095l-2.5132275-2.5132275v-9.5238095ZM110.8890042,99.4444444v3.7037037h-12.037037v-3.7037037h4.1390959v-4.6296296h-4.1390959v-3.7037037h5.3295721l2.5132275,2.5132275v5.8201058h4.1942374ZM86.8149335,95.2777778h4.6296296l3.7037037,3.7037037v4.1666667h-3.7037037v-4.1666667h-4.6296296v4.1666667h-3.7037037v-12.037037h3.7037037v4.1666667ZM95.1482668,95.2777778h-3.7037037v-4.1666667h3.7037037v4.1666667Z"/>
</svg>